<svg id="Layer_1" xmlns="http://www.w3.org/2000/svg" x="0px" y="0px" width="32px" height="32px" viewBox="0 0 32 32" style="enable-background:new 0 0 32 32;">
  <style>
    .st0{fill:#EF2B33;} .st1{fill:#FFFFFF;}
  </style>
  <path class="st0" d="M27,32H5c-2.8,0-5-2.2-5-5V5c0-2.8,2.2-5,5-5h22c2.8,0,5,2.2,5,5v22C32,29.8,29.8,32,27,32z"/>
  <path class="st1" d="M6.1,25.2H28v-14H6.1V25.2z M7.1,12.2H27v12h-2.5l-7.8-7.8l-2.7,2.7l-3.6-3.6l-3.2,3.2V12.2z M7.1,20.1
	L7.1,20.1l3.2-3.2l3.6,3.6l2.7-2.7l6.4,6.4h-16V20.1z M25,9.2l4-2l-4-2v1.5H6.1v1H25V9.2z M23,18.2c1.1,0,2-0.9,2-2s-0.9-2-2-2
	c-1.1,0-2,0.9-2,2S21.9,18.2,23,18.2z"/>
</svg>
