<?xml version="1.0" encoding="utf-8"?>
<!-- Generator: Adobe Illustrator 21.1.0, SVG Export Plug-In . SVG Version: 6.00 Build 0)  -->
<svg version="1.1" id="Layer_1" xmlns="http://www.w3.org/2000/svg" xmlns:xlink="http://www.w3.org/1999/xlink" x="0px" y="0px"
	 width="355.5px" height="351.3px" viewBox="0 0 355.5 351.3" style="enable-background:new 0 0 355.5 351.3;" xml:space="preserve"
	>
<path d="M355.3,160.4L342.7,34.1c-1.4-13.8-12.5-24.7-26.4-25.6L194.6,0.1c-8.1-0.6-16.1,2.4-21.9,8L8.6,167.8
	c-11.4,11.1-11.5,29.4-0.3,40.6l134.5,134.5c11,11,28.9,11.2,40.1,0.3l163.9-159.5C353.1,177.6,356.2,169,355.3,160.4z M261.3,201.5
	l-20.5,34.8l-40.2-27.6c-2.7-1.8-6.2,0.2-6,3.4l3.4,48.6h-40.4l3.4-48.6c0.2-3.2-3.4-5.3-6-3.4l-40.2,27.6l-20.5-34.8l44.8-22.4
	c2.8-1.4,2.8-5.5,0-6.9l-44.8-22.4l20.5-34.8l40.2,27.6c2.7,1.8,6.2-0.2,6-3.4l-3.4-48.6h40.4l-3.4,48.6c-0.2,3.2,3.4,5.3,6,3.4
	l40.2-27.6l20.5,34.8l-51.7,25.9L261.3,201.5z M287.7,85.7c-11,0-19.9-8.9-19.9-19.9s8.9-19.9,19.9-19.9c11,0,19.9,8.9,19.9,19.9
	S298.7,85.7,287.7,85.7z"/>
</svg>
