<?xml version="1.0" encoding="utf-8"?>
<!-- Generator: Adobe Illustrator 21.1.0, SVG Export Plug-In . SVG Version: 6.00 Build 0)  -->
<svg version="1.1" id="Capa_1" xmlns="http://www.w3.org/2000/svg" xmlns:xlink="http://www.w3.org/1999/xlink" x="0px" y="0px"
	 width="44.8px" height="18px" viewBox="0 0 44.8 18" style="enable-background:new 0 0 44.8 18;" xml:space="preserve">
<path d="M42.4,4.3L38.6,12l-3.8-7.7h-2.7l0.7,1.3c-0.9-1.3-2.7-1.7-4.3-1.7c-4.8,0-5.1,2.6-5.1,3h2.4c0,0,0.1-1.5,2.5-1.5
	c1.6,0,2.8,0.7,2.8,2.1V8h-2.8c-3.1,0-4.9,0.8-5.5,2.3c0.1-0.3,0.1-0.7,0.1-1c0-2.9-2-5.3-5.3-5.3c-3.1,0-4.1,1.7-4.1,1.7V0h-2.3
	v8.6c0-1.9-1.2-4.7-5.5-4.7C2.6,3.9,0,5.3,0,9.3c0,3.2,1.8,5.2,5.9,5.2c4.8,0,5.1-3.2,5.1-3.2H8.7c0,0-0.5,1.7-2.9,1.7
	c-2,0-3.4-1.3-3.4-3.2h9v2.7c0,0.7-0.1,1.7-0.1,1.7h2.2c0,0,0.1-0.7,0.1-1.4c0,0,1.1,1.7,4.1,1.7c2.6,0,4.5-1.4,5.1-3.7
	c0,0.1,0,0.2,0,0.4c0,2.2,1.8,3.3,4.2,3.3c3.3,0,4.4-1.8,4.4-1.8c0,0.7,0.1,1.4,0.1,1.4h2.1c0,0-0.1-0.9-0.1-1.5V7.8
	c0-0.7-0.1-1.2-0.3-1.7l4.3,8l-2,3.8h2.5l6.9-13.6H42.4z M2.4,8.3c0-1.8,1.7-2.9,3.3-2.9c1.9,0,3.2,1.2,3.2,2.9H2.4z M17.1,13
	c-2.3,0-3.5-1.8-3.5-3.8c0-1.8,1.1-3.8,3.5-3.8c2.1,0,3.5,1.6,3.5,3.7C20.6,11.5,19,13,17.1,13z M31.1,10.1c0,0.9-0.5,3-3.6,3
	c-1.7,0-2.4-0.8-2.4-1.8c0-1.8,2.4-1.8,6-1.8V10.1z"/>
</svg>
