<?xml version="1.0" encoding="utf-8"?>
<!-- Generator: Adobe Illustrator 21.1.0, SVG Export Plug-In . SVG Version: 6.00 Build 0)  -->
<svg version="1.1" id="Layer_1" xmlns="http://www.w3.org/2000/svg" xmlns:xlink="http://www.w3.org/1999/xlink" x="0px" y="0px"
	 width="311.1px" height="352.7px" viewBox="0 0 311.1 352.7" style="enable-background:new 0 0 311.1 352.7;" xml:space="preserve"
	>
<path d="M306.7,246.5h-16.1c-1.9,0-3.6,1.2-4.2,3.1l-12,38.7c-6.4,20.6-25.5,34.7-47.1,34.7h-92.2c-13.7,0-24.8-11.1-24.8-24.8v-104
	H177c17.5,0,31.7,14.2,31.7,31.7v8.2c0,2.4,2,4.4,4.4,4.4h13.7c2.4,0,4.4-2,4.4-4.4V114c0-2.4-2-4.4-4.4-4.4h-13.7
	c-2.4,0-4.4,2-4.4,4.4v12.8c0,17.5-14.2,31.7-31.7,31.7h-66.7v-104c0-13.7,11.1-24.8,24.8-24.8h87.5c22.6,0,41,18.3,41,41v24.7
	c0,2.4,2,4.4,4.4,4.4h16c2.3,0,4.2-1.8,4.4-4l6.7-84.8C295.5,5,290.9,0,284.9,0H7C3.1,0,0,3.1,0,7v15.7c0,3.9,3.1,7,7,7h17.8
	c13.7,0,24.8,11.1,24.8,24.8v243.7c0,13.7-11.1,24.8-24.8,24.8H7c-3.9,0-7,3.1-7,7v15.7c0,3.9,3.1,7,7,7h280.2c5,0,9.3-3.7,10-8.6
	l13.8-92.5C311.4,248.9,309.4,246.5,306.7,246.5z"/>
</svg>
