<?xml version="1.0" encoding="utf-8"?>
<!-- Generator: Adobe Illustrator 21.1.0, SVG Export Plug-In . SVG Version: 6.00 Build 0)  -->
<svg version="1.1" id="Layer_1" xmlns="http://www.w3.org/2000/svg" xmlns:xlink="http://www.w3.org/1999/xlink" x="0px" y="0px"
	 width="56.1px" height="52.8px" viewBox="0 0 56.1 52.8" style="enable-background:new 0 0 56.1 52.8;" xml:space="preserve">
<g id="Layer_3">
</g>
<path class="st0" d="M52.8,35.5c-1.3-0.2-2.4-0.7-3.4-1.4c-1.5-1-2.6-2.3-3.4-3.5c-0.4-0.6-0.7-1.1-0.9-1.4c0-0.1-0.1-0.2-0.1-0.2
	c0.2-0.1,0.4-0.2,0.7-0.2c0.3-0.1,0.6-0.2,0.9-0.3c1-0.4,2-0.9,2.8-1.7c0.4-0.4,0.8-0.9,1.1-1.4c0.3-0.5,0.4-1.2,0.4-1.8
	c0-0.1,0-0.1,0-0.1c0-1.1-0.5-2.1-1.1-2.8c-0.6-0.7-1.4-1.2-2.1-1.5c-0.1,0-0.1,0-0.2,0c-0.1,0-0.1,0-0.2,0
	c-0.6-0.2-1.1-0.3-1.7-0.3c-0.2,0-0.6,0-1,0.1c0-0.8,0.1-1.7,0.1-2.6c0-2.3-0.1-4.6-1.1-6.7c-1-2.2-2.3-3.9-3.7-5.3
	c-1.4-1.3-3-2.3-4.4-2.9C32.6,0.2,29.9,0,28.6,0h-0.1c0,0-0.2,0-0.4,0c-0.1,0-0.2,0-0.3,0h-0.1c-1.3,0-3.9,0.2-6.9,1.5
	c-1.5,0.6-3,1.6-4.4,2.9c-1.7,1.2-3,2.9-4,5.1c-0.9,2.1-1,4.4-1.1,6.7c0,0.9,0,1.8,0.1,2.7c-0.4-0.1-0.8-0.1-1.1-0.1
	c-1.1,0-2.1,0.3-3,0.9C6.8,20,6.4,20.4,6,20.9c-0.4,0.5-0.7,1.1-0.8,1.9c0,0.2-0.1,0.5-0.1,0.8c0,0.5,0.1,1.1,0.3,1.6
	c0.3,0.8,0.9,1.5,1.6,2c0.7,0.5,1.5,1,2.4,1.4c0.3,0.1,0.6,0.2,0.9,0.3c0.2,0.1,0.5,0.1,0.7,0.2c-0.3,0.6-0.9,1.7-1.9,2.9
	c-0.7,0.8-1.5,1.6-2.5,2.3c-1,0.6-2.1,1.1-3.4,1.3C1.4,35.9,0,37.5,0,39.4v0.1v0.1c0,0.5,0.1,1,0.3,1.4c0.4,0.8,0.9,1.5,1.5,1.9
	c0.9,0.7,1.9,1.1,3.1,1.5c0.7,0.2,1.5,0.4,2.3,0.6c0.1,0.2,0.1,0.5,0.2,0.7c0.1,0.5,0.5,1.2,1.2,1.9s1.7,1,2.7,1
	c0.7,0,1.2-0.1,1.7-0.2c0.6-0.1,1.3-0.3,2.2-0.3c0.5,0,1,0,1.5,0.1c0.2,0,0.5,0.1,0.9,0.4c0.4,0.2,0.9,0.6,1.6,1
	c0.9,0.6,2,1.4,3.4,2.1c1.4,0.7,3.1,1.1,5.1,1.1h0.1H28c0.1,0,0.2,0,0.4,0c2,0,3.7-0.5,5.1-1.1c1.4-0.7,2.5-1.5,3.4-2.1
	c0.6-0.4,1.2-0.8,1.6-1c0.4-0.2,0.7-0.3,0.9-0.4c0.5-0.1,1-0.1,1.5-0.1c0.8,0,1.5,0.1,2.2,0.2c0.5,0.1,1.1,0.2,1.6,0.2
	c0.8,0,1.6-0.2,2.4-0.8c0.7-0.5,1.1-1.2,1.4-2c0.1-0.3,0.1-0.5,0.2-0.7c1.3-0.3,2.4-0.6,3.4-1c0.7-0.3,1.4-0.6,2-1.1
	c0.6-0.4,1.1-1,1.5-1.8c0,0,0-0.1,0.1-0.1c0-0.1,0-0.1,0.1-0.2c0.2-0.4,0.3-0.8,0.3-1.2v-0.1v-0.1v-0.1
	C55.9,37.4,54.6,35.8,52.8,35.5z M52.3,39.2c0,0.1-0.2,0.3-0.4,0.5s-0.6,0.4-1.1,0.6c-0.9,0.4-2.2,0.7-3.9,1
	c-0.7,0.1-1.3,0.7-1.5,1.4c-0.1,0.2-0.1,0.5-0.2,0.7c-0.1,0.4-0.2,0.7-0.3,1.1v0.1h-0.1c-0.2,0-0.5,0-1-0.1
	c-0.8-0.2-1.7-0.3-2.9-0.3c-0.9,0.1-1.6,0.2-2.3,0.3c-0.8,0.1-1.5,0.4-2.1,0.8c-0.7,0.4-1.3,0.8-1.9,1.2c-0.9,0.6-1.8,1.3-2.8,1.7
	c-1,0.5-2.1,0.8-3.5,0.8c-0.1,0-0.2,0-0.3,0h-0.1h-0.2c-1.4,0-2.5-0.3-3.5-0.8s-1.9-1.1-2.8-1.7c-0.6-0.4-1.2-0.9-1.9-1.2
	c-0.6-0.4-1.3-0.7-2.1-0.8c-0.7-0.1-1.4-0.2-2.1-0.2c-1.2,0-2.2,0.2-2.9,0.3c-0.5,0.1-0.8,0.1-1,0.1h-0.2c0,0-0.1-0.1-0.1-0.2
	c-0.1-0.4-0.2-0.7-0.3-1.1c0-0.2-0.1-0.4-0.2-0.7c-0.2-0.7-0.8-1.2-1.5-1.4c-1.2-0.2-2.3-0.4-3.1-0.7c-0.9-0.3-1.6-0.6-1.9-0.9
	c-0.2-0.2-0.4-0.3-0.4-0.5v-0.1L3.8,39c1.9-0.3,3.5-1,4.8-1.9c1.4-0.9,2.4-1.9,3.3-3c0.9-1,1.5-2,2-2.8c0.2-0.4,0.4-0.7,0.5-0.9
	c0.1-0.1,0.1-0.2,0.1-0.3l0.1-0.1c0.1-0.3,0.2-0.5,0.3-0.8s0.1-0.5,0.1-0.9c0-0.1,0-0.3,0-0.5s-0.1-0.3-0.1-0.5
	c-0.2-0.4-0.4-0.7-0.7-1s-0.6-0.4-0.9-0.6c-0.6-0.3-1.3-0.5-1.8-0.7c-0.3-0.1-0.5-0.2-0.7-0.2c-0.7-0.3-1.2-0.6-1.5-0.8
	c-0.3-0.2-0.4-0.4-0.4-0.5v-0.2v-0.1C8.9,23.1,9,23,9,22.9c0.1-0.1,0.2-0.2,0.3-0.3c0.3-0.2,0.7-0.3,1-0.3c0.2,0,0.3,0,0.4,0.1
	c0.5,0.2,0.9,0.4,1.4,0.5c0.4,0.1,0.9,0.2,1.3,0.2h0.1c0.5,0,1-0.3,1.3-0.6c0.3-0.3,0.5-0.9,0.5-1.4c0-0.2,0-0.3,0-0.5
	c-0.1-1.5-0.2-3-0.2-4.6c0-2.1,0.2-4,0.7-5.2c0.8-1.8,1.8-3.1,2.8-4.1c1.1-1,2.2-1.7,3.4-2.2c2.3-1,4.4-1.1,5.4-1.1c0,0,0.1,0,0.2,0
	c0.1,0,0.2,0,0.3,0s0.2,0,0.3,0h0.1h0.1c1,0,3.1,0.1,5.4,1.1c1.1,0.5,2.3,1.2,3.4,2.2c1.1,1,2.1,2.3,2.8,4.1
	c0.6,1.2,0.8,3.1,0.7,5.2c0,1.5-0.1,3.1-0.2,4.6v0.1c0,0.1,0,0.2,0,0.3c0,0.5,0.2,1.1,0.6,1.5c0.4,0.4,0.9,0.6,1.5,0.5
	c0.7-0.1,1.5-0.3,2.3-0.7c0.2-0.1,0.4-0.1,0.6-0.1c0.2,0,0.5,0,0.7,0.1h0.1c0.3,0.1,0.6,0.3,0.7,0.4c0.1,0.1,0.2,0.3,0.2,0.4
	l-0.1,0.3c0,0.1-0.1,0.2-0.3,0.4c-0.3,0.3-0.8,0.6-1.6,0.9c-0.2,0.1-0.4,0.1-0.7,0.2c-0.4,0.1-0.8,0.3-1.3,0.5
	c-0.2,0.1-0.5,0.2-0.7,0.3c-0.2,0.1-0.5,0.3-0.7,0.5c-0.3,0.3-0.5,0.5-0.7,1C41,27.3,41,27.5,41,27.7c0,0.1,0,0.2,0,0.4v0.1
	c0,0.3,0.1,0.6,0.1,0.9c0.1,0.3,0.2,0.5,0.3,0.8c0.1,0.2,0.6,1.3,1.5,2.7c1,1.4,2.4,3.1,4.5,4.5c1.3,0.9,3,1.6,4.8,1.9l0.1,0.1V39.2
	z"/>
</svg>
