<?xml version="1.0" encoding="utf-8"?>
<!-- Generator: Adobe Illustrator 21.1.0, SVG Export Plug-In . SVG Version: 6.00 Build 0)  -->
<svg version="1.1" id="Layer_1" xmlns="http://www.w3.org/2000/svg" xmlns:xlink="http://www.w3.org/1999/xlink" x="0px" y="0px"
	 width="167.5px" height="167.5px" viewBox="0 0 167.5 167.5" style="enable-background:new 0 0 167.5 167.5;" xml:space="preserve"
	>
<g>
	<g>
		<g>
			<path class="st0" d="M83.7,0C37.5,0,0,37.5,0,83.7c0,46.3,37.5,83.7,83.7,83.7c46.3,0,83.7-37.5,83.7-83.7
				C167.5,37.5,130,0,83.7,0z M122.1,120.8c-1.5,2.5-4.7,3.2-7.2,1.7c-19.7-12-44.4-14.7-73.6-8.1c-2.8,0.6-5.6-1.1-6.2-3.9
				c-0.6-2.8,1.1-5.6,3.9-6.2c31.9-7.3,59.3-4.2,81.3,9.3C122.9,115.1,123.7,118.3,122.1,120.8z M132.4,98c-1.9,3.1-5.9,4-9,2.2
				C100.9,86.3,66.6,82.3,40,90.4c-3.5,1-7.1-0.9-8.1-4.3c-1-3.5,0.9-7.1,4.4-8.1c30.4-9.2,68.2-4.8,94.1,11.1
				C133.3,90.9,134.3,94.9,132.4,98z M133.3,74.2c-27-16-71.5-17.5-97.3-9.7c-4.1,1.3-8.5-1.1-9.8-5.2c-1.3-4.1,1.1-8.5,5.2-9.8
				c29.6-9,78.8-7.2,109.8,11.2c3.7,2.2,4.9,7,2.7,10.7C141.8,75.2,137,76.4,133.3,74.2z"/>
		</g>
	</g>
</g>
</svg>
