<?xml version="1.0" encoding="utf-8"?>
<!-- Generator: Adobe Illustrator 21.1.0, SVG Export Plug-In . SVG Version: 6.00 Build 0)  -->
<svg version="1.1" id="Layer_1" xmlns="http://www.w3.org/2000/svg" xmlns:xlink="http://www.w3.org/1999/xlink" x="0px" y="0px"
	 width="317.9px" height="447.7px" viewBox="0 0 317.9 447.7" style="enable-background:new 0 0 317.9 447.7;" xml:space="preserve"
	>
<path d="M266.9,256.3c-5.5,0.1-8.1-1.6-10.6-6.4c-38.4-76-77.1-152-115.7-227.9c-3.6-7.1-7.3-14.2-11.3-22C86,86,43.2,171,0,256.8
	c2.6,0,4.1,0,5.6,0c22.5,0,45-0.1,67.5,0.1c3.5,0,5.2-1.1,6.8-4.2c15.5-31.3,31.2-62.5,46.9-93.7c0.8-1.7,1.8-3.3,3-5.7
	c17.6,34.7,34.8,68.4,52.3,102.9c-19.6,0-38.4,0-58.1,0c32.6,64.1,64.8,127.4,97.4,191.5c32.3-64.2,64.2-127.5,96.5-191.6
	C300.2,256.2,283.5,255.9,266.9,256.3z M221.2,333.3c-13.1-25.7-25.8-50.7-38.8-76.2c25.8,0,50.9,0,77,0
	C246.7,282.5,234.2,307.5,221.2,333.3z"/>
</svg>
