<?xml version="1.0" encoding="utf-8"?>
<!-- Generator: Adobe Illustrator 21.1.0, SVG Export Plug-In . SVG Version: 6.00 Build 0)  -->
<svg version="1.1" id="Capa_1" xmlns="http://www.w3.org/2000/svg" xmlns:xlink="http://www.w3.org/1999/xlink" x="0px" y="0px"
	 width="189.5px" height="169.5px" viewBox="0 0 189.5 169.5" style="enable-background:new 0 0 189.5 169.5;" xml:space="preserve"
	>
<path d="M187.6,2.6c-0.1-0.1-0.3-0.3-0.4-0.4c-1.3-1.3-3.1-2-4.8-2.1c-0.3,0-0.6,0-0.9,0c-0.8,0.1-1.7,0.2-2.5,0.6L4.7,70
	C1.9,71.1,0,73.9,0,77c0,3.1,1.9,5.9,4.8,7l45.8,17.5l12.8,48.6c0.6,2.4,2.4,4.3,4.7,5.1c2.3,0.8,4.9,0.5,6.9-1l25.6-18.4l47.6,32.3
	c1.3,0.9,2.7,1.3,4.2,1.3c1,0,1.9-0.2,2.9-0.6c2.3-1,4-3,4.5-5.5L189.3,9c0.1-0.3,0.1-0.6,0.1-0.9c0-0.4,0-0.8,0-1.2
	C189.3,5.4,188.7,3.8,187.6,2.6z M68.2,109l-4-15.1c-0.6-2.3-2.3-4.2-4.6-5.1l-31.5-12l121.1-48.2l-78.8,75.8
	C69.2,105.7,68.4,107.3,68.2,109z M75.2,135.7l-5.7-21.5c0.5,0.7,1.1,1.3,1.9,1.8l16,10.9L75.2,135.7z M147.3,149.4l-42.4-28.8
	c-0.1,0-0.1-0.1-0.2-0.1l-17.2-11.6l82.7-79.6L147.3,149.4z"/>
</svg>
