<?xml version="1.0" encoding="utf-8"?>
<!-- Generator: Adobe Illustrator 21.1.0, SVG Export Plug-In . SVG Version: 6.00 Build 0)  -->
<svg version="1.1" id="Capa_1" xmlns="http://www.w3.org/2000/svg" xmlns:xlink="http://www.w3.org/1999/xlink" x="0px" y="0px"
	 width="98.6px" height="58.4px" viewBox="0 0 98.6 58.4" style="enable-background:new 0 0 98.6 58.4;" xml:space="preserve">
<g>
	<path d="M93.9,19.3c-0.2-0.3-0.2-0.6-0.1-0.9c0.8-2.9,2.2-5.5,3.9-8.1c0.2-0.3,0.5-0.7,0.7-1c0,0,0-0.1,0-0.2
		c-0.4,0-0.8-0.1-1.2-0.1c-4.8,0-9.7,0-14.5,0c-0.3,0-0.7-0.1-1-0.3c-4.1-2.6-8.5-4.6-13.2-6c-2.7-0.8-5.4-1.5-8.1-1.9
		C56.7,0.4,51.1-0.4,44,0.2c-2.9,0.2-5.7,0.6-8.6,1.1c-2.9,0.6-5.8,1.3-8.6,2.3C23,5,19.3,6.8,15.8,9c-0.2,0.1-0.4,0.2-0.6,0.2
		c-5,0-9.9,0-14.9,0c-0.1,0-0.2,0-0.2,0c0,0.1,0,0.1,0,0.2c0.4,0.6,0.9,1.1,1.2,1.7c1.5,2.3,2.7,4.8,3.5,7.4c0.1,0.2,0,0.5-0.1,0.7
		c-1.8,2.5-3.1,5.3-3.8,8.3c-0.3,1-1.3,5.3-0.4,9.8c0.7,4.8,2.7,8.9,5.9,12.5c3.3,3.7,7.3,6.2,12,7.5c3.3,0.9,6.7,1.1,10.2,0.6
		c6.2-1,11.3-3.9,15.3-8.7c0,0,0.1-0.1,0.1-0.1c0,0,0.1,0,0.2-0.1c1.7,2.6,3.4,5.1,5.2,7.8c1.8-2.7,3.5-5.2,5.3-7.9
		c0.5,0.5,0.9,1,1.3,1.5c3.3,3.6,7.4,5.9,12.1,7.1c1.9,0.5,3.9,0.8,5.9,0.8c4.7,0,9.1-1.2,13.1-3.8c5.6-3.5,9.3-8.6,10.9-15
		C99.6,32.3,98.2,25.5,93.9,19.3z M24.9,53.3C13.9,53.4,5.2,44.5,5,34c-0.2-11.3,9-20.1,19.6-20c10.9,0,19.7,8.8,19.7,19.7
		C44.3,44.4,35.7,53.2,24.9,53.3z M41.3,15.3c-4.4-4-9.7-6.1-15.7-6.5c8-3.4,16.4-4.6,25-4.5C58.2,4.5,65.6,5.9,72.6,9
		c-5.9,0.4-11.1,2.5-15.4,6.5c-4.3,4-6.9,9-7.8,14.8C48.3,24.4,45.8,19.4,41.3,15.3z M73.9,53.4c-10.8,0-19.7-8.8-19.7-19.7
		c0.1-10.7,8.5-19.4,19.3-19.6c10.9-0.2,20.1,8.3,20.1,19.6C93.5,44.7,84.7,53.3,73.9,53.4z"/>
	<path d="M73.8,21.2c-6.5-0.1-12.2,5.3-12.2,12.2c0,6.8,5.7,12.5,12.7,12.2C80.6,45.3,86,40.1,86,33.4C86,26.6,80.6,21.2,73.8,21.2z
		 M73.8,41.4c-4.4,0-8-3.6-8-8c0-4.4,3.6-7.9,8-7.9c4.4,0,7.9,3.6,7.9,8C81.8,37.8,78.2,41.4,73.8,41.4z"/>
	<path d="M24.4,21.2c-6.5-0.1-12.2,5.2-12.2,12.2c0,6.9,5.7,12.5,12.8,12.2c6.2-0.3,11.6-5.4,11.6-12.2
		C36.6,26.7,31.1,21.2,24.4,21.2z M24.4,41.4c-4.4,0-8-3.6-8-8c0-4.3,3.6-7.9,7.9-8c4.5,0,8,3.5,8,7.9
		C32.4,37.8,28.8,41.4,24.4,41.4z"/>
	<path d="M73.8,29.4c-2.3,0-4,1.8-4,4.1c0,2.2,1.8,4,4.1,4c2.2,0,4-1.8,4-4C77.9,31.2,76.1,29.4,73.8,29.4z"/>
	<path d="M24.4,29.3c-2.3,0-4.1,1.8-4.1,4.1c0,2.3,1.8,4.1,4.1,4.1c2.3,0,4.1-1.8,4.1-4.1C28.5,31.1,26.7,29.3,24.4,29.3z"/>
</g>
</svg>
