<?xml version="1.0" encoding="utf-8"?>
<!-- Generator: Adobe Illustrator 21.1.0, SVG Export Plug-In . SVG Version: 6.00 Build 0)  -->
<svg version="1.1" id="Layer_2" xmlns="http://www.w3.org/2000/svg" xmlns:xlink="http://www.w3.org/1999/xlink" x="0px" y="0px"
	 width="1265.9px" height="1265.9px" viewBox="0 0 1265.9 1265.9" style="enable-background:new 0 0 1265.9 1265.9;"
	 xml:space="preserve">
<rect x="105.3" y="105.3" width="1055.4" height="1055.4" style="fill-rule:evenodd;clip-rule:evenodd;fill: transparent;"/>
<path style="fill-rule:evenodd;clip-rule:evenodd;" d="M0,0v1265.9h1265.9V0H0z M689.2,242.7c30.4,14.9,143.1,91.4,183.2,119.7c-128.4,3-378.9,58.6-483.1,93.3
	C474.9,391.2,634,268.4,689.2,242.7z M249.6,592.7c68.4-31.2,259.7-89.3,443-132.1c0,0-352.3,325.2-450.3,426l80.9-219.4
	c-62.9,9.2-90.6,12.8-176.5,31.2L249.6,592.7z M867.5,890.4c-308.1,18.5-643.1,129.9-678.4,145.5l41.1-115.7
	C334.6,871.9,594.5,776.4,914,753.7C907.8,777.3,874.1,864.4,867.5,890.4z M977.4,579c0,0-15.1,31.6-29.4,75.1
	c-123,7.4-316.7,48-411.3,82.2c48.7-44.9,359.7-357.2,359.7-357.2c120.6,82.4,245.6,183.4,245.6,183.4L977.4,579z"/>
</svg>
