<?xml version="1.0" encoding="utf-8"?>
<!-- Generator: Adobe Illustrator 21.1.0, SVG Export Plug-In . SVG Version: 6.00 Build 0)  -->
<svg version="1.1" id="Layer_1" xmlns="http://www.w3.org/2000/svg" xmlns:xlink="http://www.w3.org/1999/xlink" x="0px" y="0px"
	 width="81.2px" height="81.2px" viewBox="0 0 81.2 81.2" style="enable-background:new 0 0 81.2 81.2;" xml:space="preserve">
<path d="M32.3,32.3c0,0,0-0.1,0.1-0.1c1.8-1,4.7-2.3,9-2.4c4.8-0.2,10,0.6,10,0.6c-2.4-0.6-6.7-1.7-10.9-1.7c-1.9,0-3.6,0.2-4.9,0.6
	c-1.6,0.4-2.9,1-4,1.4c-0.2,0.1-0.5,0.5-0.5,0.7c0,0.5,0.4,0.8,0.8,0.8H32.3z M70.4,0H10.8C4.8,0,0,4.9,0,10.8v27.5
	c9.7,0.5,11.9,0.2,14.9-0.1s7-4.8,7-4.8s3.7-5.6,12.6-8c8.8-2.4,20.3,1.8,20.3,1.8C68.6,32,68.9,40.3,68.9,40.3V41
	c0,0-0.2,8.2-14.2,13.1c0,0-11.5,4.3-20.3,1.9c-8.9-2.4-12.6-8.2-12.6-8.2s-4-4.4-7-4.8c-3-0.4-5.2-0.6-14.9-0.1v27.5
	c0,6,4.8,10.8,10.8,10.8h59.6c6,0,10.8-4.8,10.8-10.8V10.8C81.2,4.9,76.4,0,70.4,0z"/>
</svg>
